<svg width="153" height="24" viewBox="0 0 153 24" fill="none" xmlns="http://www.w3.org/2000/svg">
<path d="M6.00127 22.2L7.62627 15.175L2.17627 10.45L9.37627 9.82495L12.1763 3.19995L14.9763 9.82495L22.1763 10.45L16.7263 15.175L18.3513 22.2L12.1763 18.475L6.00127 22.2Z" fill="#FCA311"/>
<path d="M38.0013 22.2L39.6263 15.175L34.1763 10.45L41.3763 9.82495L44.1763 3.19995L46.9763 9.82495L54.1763 10.45L48.7263 15.175L50.3513 22.2L44.1763 18.475L38.0013 22.2Z" fill="#FCA311"/>
<path d="M70.0013 22.2L71.6263 15.175L66.1763 10.45L73.3763 9.82495L76.1763 3.19995L78.9763 9.82495L86.1763 10.45L80.7263 15.175L82.3513 22.2L76.1763 18.475L70.0013 22.2Z" fill="#FCA311"/>
<path d="M102.001 22.2L103.626 15.175L98.1763 10.45L105.376 9.82495L108.176 3.19995L110.976 9.82495L118.176 10.45L112.726 15.175L114.351 22.2L108.176 18.475L102.001 22.2Z" fill="#FCA311"/>
<path d="M134.001 22.2L135.626 15.175L130.176 10.45L137.376 9.82495L140.176 3.19995L142.976 9.82495L150.176 10.45L144.726 15.175L146.351 22.2L140.176 18.475L134.001 22.2Z" fill="#FCA311"/>
</svg>
