<svg width="25" height="25" viewBox="0 0 25 25" fill="none" xmlns="http://www.w3.org/2000/svg">
<g clip-path="url(#clip0_84_608)">
<path d="M12.5 25C15.8152 25 18.9946 23.683 21.3388 21.3388C23.683 18.9946 25 15.8152 25 12.5C25 9.18479 23.683 6.00537 21.3388 3.66117C18.9946 1.31696 15.8152 0 12.5 0C9.18479 0 6.00537 1.31696 3.66117 3.66117C1.31696 6.00537 0 9.18479 0 12.5C0 15.8152 1.31696 18.9946 3.66117 21.3388C6.00537 23.683 9.18479 25 12.5 25ZM8.0127 15.8936C8.88672 16.9043 10.3809 17.9688 12.5 17.9688C14.6191 17.9688 16.1133 16.9043 16.9873 15.8936C17.2705 15.5664 17.7637 15.5322 18.0908 15.8154C18.418 16.0986 18.4521 16.5918 18.1689 16.9189C17.0801 18.1689 15.1904 19.5312 12.5 19.5312C9.80957 19.5312 7.91992 18.1689 6.83105 16.9189C6.54785 16.5918 6.58203 16.0986 6.90918 15.8154C7.23633 15.5322 7.72949 15.5664 8.0127 15.8936ZM7.05078 10.1562C7.05078 9.74185 7.2154 9.34442 7.50843 9.0514C7.80145 8.75837 8.19888 8.59375 8.61328 8.59375C9.02768 8.59375 9.42511 8.75837 9.71814 9.0514C10.0112 9.34442 10.1758 9.74185 10.1758 10.1562C10.1758 10.5707 10.0112 10.9681 9.71814 11.2611C9.42511 11.5541 9.02768 11.7188 8.61328 11.7188C8.19888 11.7188 7.80145 11.5541 7.50843 11.2611C7.2154 10.9681 7.05078 10.5707 7.05078 10.1562ZM16.4258 8.59375C16.8402 8.59375 17.2376 8.75837 17.5306 9.0514C17.8237 9.34442 17.9883 9.74185 17.9883 10.1562C17.9883 10.5707 17.8237 10.9681 17.5306 11.2611C17.2376 11.5541 16.8402 11.7188 16.4258 11.7188C16.0114 11.7188 15.614 11.5541 15.3209 11.2611C15.0279 10.9681 14.8633 10.5707 14.8633 10.1562C14.8633 9.74185 15.0279 9.34442 15.3209 9.0514C15.614 8.75837 16.0114 8.59375 16.4258 8.59375Z" fill="#528799"/>
</g>
<defs>
<clipPath id="clip0_84_608">
<rect width="25" height="25" fill="white"/>
</clipPath>
</defs>
</svg>
