<svg width="32" height="23" viewBox="0 0 32 23" fill="none" xmlns="http://www.w3.org/2000/svg">
<rect x="11.3931" y="4.15222" width="10.9159" height="12.8571" fill="white"/>
<path fill-rule="evenodd" clip-rule="evenodd" d="M12.9639 16.0432L12.9629 7.23712L21.4715 11.6553L12.9639 16.0432ZM31.6462 5.71118C31.6462 5.71118 31.3382 3.55154 30.3944 2.60052C29.1968 1.35175 27.8544 1.34586 27.2394 1.27338C22.8325 0.95605 16.2223 0.956055 16.2223 0.956055H16.2085C16.2085 0.956055 9.5983 0.95605 5.19147 1.27338C4.57542 1.34586 3.23408 1.35175 2.03544 2.60052C1.09168 3.55154 0.784638 5.71118 0.784638 5.71118C0.784638 5.71118 0.469727 8.24789 0.469727 10.7836V13.1617C0.469727 15.6984 0.784638 18.2341 0.784638 18.2341C0.784638 18.2341 1.09168 20.3938 2.03544 21.3448C3.23408 22.5936 4.80766 22.5544 5.50834 22.6847C8.02766 22.9256 16.2154 23 16.2154 23C16.2154 23 22.8325 22.9902 27.2394 22.6729C27.8544 22.5994 29.1968 22.5936 30.3944 21.3448C31.3382 20.3938 31.6462 18.2341 31.6462 18.2341C31.6462 18.2341 31.9611 15.6984 31.9611 13.1617V10.7836C31.9611 8.24789 31.6462 5.71118 31.6462 5.71118Z" fill="#CE1312"/>
</svg>
