<svg width="31" height="31" viewBox="0 0 31 31" fill="none" xmlns="http://www.w3.org/2000/svg">
<path fill-rule="evenodd" clip-rule="evenodd" d="M15.3452 28.2468C8.24429 28.2468 2.48804 22.4905 2.48804 15.3896C2.48804 8.28872 8.24429 2.53247 15.3452 2.53247C22.4461 2.53247 28.2023 8.28872 28.2023 15.3896C28.2023 22.4905 22.4461 28.2468 15.3452 28.2468ZM13.8559 11.0134H15.6452C17.2893 11.0134 18.1154 11.8743 18.1154 13.2371C18.1154 14.6085 17.2893 15.478 15.6361 15.478H13.8559V11.0134ZM16.1048 17.0118C18.4732 17.0118 20.0327 15.41 20.0327 13.2285C20.0327 11.0391 18.5075 9.42015 16.1648 9.42015H11.9729V16.0405H10.2934V17.0118H11.9723V18.6644H10.2934V19.6271H11.9723V21.4844H13.8548V19.6271H17.2716V18.6644H13.8548V17.0118H16.1048Z" fill="#528799"/>
</svg>
