<svg width="32" height="33" viewBox="0 0 32 33" fill="none" xmlns="http://www.w3.org/2000/svg">
<path fill-rule="evenodd" clip-rule="evenodd" d="M12.7893 4.65643C12.5789 4.84531 12.3586 5.02289 12.1293 5.18843C11.732 5.4551 11.2853 5.6391 10.816 5.73243C10.612 5.77243 10.3987 5.78977 9.97333 5.8231C8.90533 5.90843 8.37066 5.9511 7.92533 6.10843C7.41598 6.28796 6.95336 6.57938 6.57148 6.96126C6.18961 7.34314 5.89819 7.80576 5.71866 8.3151C5.56133 8.76043 5.51866 9.2951 5.43333 10.3631C5.41801 10.6454 5.38775 10.9267 5.34266 11.2058C5.24933 11.6751 5.06533 12.1218 4.79866 12.5191C4.68266 12.6924 4.54399 12.8551 4.26666 13.1791C3.57199 13.9951 3.22399 14.4031 3.01999 14.8298C2.54933 15.8164 2.54933 16.9631 3.01999 17.9498C3.22399 18.3764 3.57199 18.7844 4.26666 19.6004C4.54399 19.9244 4.68266 20.0871 4.79866 20.2604C5.06533 20.6578 5.24933 21.1044 5.34266 21.5738C5.38266 21.7778 5.39999 21.9911 5.43333 22.4164C5.51866 23.4844 5.56133 24.0191 5.71866 24.4644C5.89819 24.9738 6.18961 25.4364 6.57148 25.8183C6.95336 26.2002 7.41598 26.4916 7.92533 26.6711C8.37066 26.8284 8.90533 26.8711 9.97333 26.9564C10.3987 26.9898 10.612 27.0071 10.816 27.0471C11.2853 27.1404 11.732 27.3258 12.1293 27.5911C12.3027 27.7071 12.4653 27.8458 12.7893 28.1231C13.6053 28.8178 14.0133 29.1658 14.44 29.3698C15.4267 29.8404 16.5733 29.8404 17.56 29.3698C17.9867 29.1658 18.3947 28.8178 19.2107 28.1231C19.5347 27.8458 19.6973 27.7071 19.8707 27.5911C20.268 27.3244 20.7147 27.1404 21.184 27.0471C21.388 27.0071 21.6013 26.9898 22.0267 26.9564C23.0947 26.8711 23.6293 26.8284 24.0747 26.6711C24.584 26.4916 25.0466 26.2002 25.4285 25.8183C25.8104 25.4364 26.1018 24.9738 26.2813 24.4644C26.4387 24.0191 26.4813 23.4844 26.5667 22.4164C26.6 21.9911 26.6173 21.7778 26.6573 21.5738C26.7507 21.1044 26.936 20.6578 27.2013 20.2604C27.3173 20.0871 27.456 19.9244 27.7333 19.6004C28.428 18.7844 28.776 18.3764 28.98 17.9498C29.4507 16.9631 29.4507 15.8164 28.98 14.8298C28.776 14.4031 28.428 13.9951 27.7333 13.1791C27.5445 12.9687 27.3669 12.7483 27.2013 12.5191C26.9345 12.1218 26.7496 11.6754 26.6573 11.2058C26.6122 10.9267 26.582 10.6454 26.5667 10.3631C26.4813 9.2951 26.4387 8.76043 26.2813 8.3151C26.1018 7.80576 25.8104 7.34314 25.4285 6.96126C25.0466 6.57938 24.584 6.28796 24.0747 6.10843C23.6293 5.9511 23.0947 5.90843 22.0267 5.8231C21.7444 5.80779 21.4631 5.77752 21.184 5.73243C20.7144 5.6402 20.2679 5.45526 19.8707 5.18843C19.6414 5.02289 19.4211 4.84531 19.2107 4.65643C18.3947 3.96177 17.9867 3.61377 17.56 3.40977C17.073 3.17666 16.5399 3.05566 16 3.05566C15.4601 3.05566 14.927 3.17666 14.44 3.40977C14.0133 3.61377 13.6053 3.96177 12.7893 4.65643ZM21.108 11.2831C21.3111 11.4866 21.4251 11.7623 21.4251 12.0498C21.4251 12.3372 21.3111 12.613 21.108 12.8164L12.4267 21.4991C12.3277 21.6074 12.2079 21.6945 12.0744 21.7551C11.9409 21.8158 11.7965 21.8488 11.6499 21.8521C11.5033 21.8554 11.3575 21.8289 11.2214 21.7744C11.0853 21.7198 10.9616 21.6382 10.858 21.5345C10.7543 21.4308 10.6727 21.3071 10.6181 21.171C10.5635 21.0349 10.537 20.8892 10.5403 20.7426C10.5437 20.596 10.5766 20.4515 10.6373 20.318C10.698 20.1845 10.7851 20.0647 10.8933 19.9658L19.5733 11.2844C19.7768 11.0814 20.0525 10.9673 20.34 10.9673C20.6275 10.9673 20.9032 11.0814 21.1067 11.2844M21.0627 20.0084C21.0627 20.3921 20.9102 20.7601 20.6389 21.0314C20.3676 21.3027 19.9997 21.4551 19.616 21.4551C19.2323 21.4551 18.8643 21.3027 18.593 21.0314C18.3217 20.7601 18.1693 20.3921 18.1693 20.0084C18.1693 19.6248 18.3217 19.2568 18.593 18.9855C18.8643 18.7142 19.2323 18.5618 19.616 18.5618C19.9997 18.5618 20.3676 18.7142 20.6389 18.9855C20.9102 19.2568 21.0627 19.6248 21.0627 20.0084ZM12.3827 14.2218C12.7663 14.2218 13.1343 14.0694 13.4056 13.798C13.6769 13.5267 13.8293 13.1588 13.8293 12.7751C13.8293 12.3914 13.6769 12.0235 13.4056 11.7522C13.1343 11.4809 12.7663 11.3284 12.3827 11.3284C11.999 11.3284 11.631 11.4809 11.3597 11.7522C11.0884 12.0235 10.936 12.3914 10.936 12.7751C10.936 13.1588 11.0884 13.5267 11.3597 13.798C11.631 14.0694 11.999 14.2218 12.3827 14.2218Z" fill="#528799"/>
</svg>
