<svg width="40" height="40" viewBox="0 0 40 40" fill="none" xmlns="http://www.w3.org/2000/svg">
<path d="M0 16C0 8.45753 0 4.68629 2.34315 2.34315C4.68629 0 8.45753 0 16 0H24C31.5425 0 35.3137 0 37.6569 2.34315C40 4.68629 40 8.45753 40 16V24C40 31.5425 40 35.3137 37.6569 37.6569C35.3137 40 31.5425 40 24 40H16C8.45753 40 4.68629 40 2.34315 37.6569C0 35.3137 0 31.5425 0 24V16Z" fill="#FCA311"/>
<path d="M27.562 29.8906C27.562 30.2253 27.2873 30.5 26.9526 30.5H13.0474C12.7127 30.5 12.438 30.2253 12.438 29.8906V29.332C12.825 29.9652 13.5205 30.3896 14.3169 30.3896H15.6313C16.4117 30.3896 17.0954 29.9822 17.4868 29.3701C17.8782 29.9822 18.5619 30.3896 19.3423 30.3896H25.6831C26.4795 30.3896 27.175 29.9652 27.562 29.332V29.8906ZM12.438 24.8027C12.5915 25.0539 12.7927 25.2717 13.0308 25.4434C12.7927 25.6149 12.5916 25.8329 12.438 26.084V24.8027ZM27.562 26.084C27.4083 25.8327 27.2066 25.615 26.9683 25.4434C27.2066 25.2716 27.4084 25.0541 27.562 24.8027V26.084ZM17.4868 24.8408C17.6372 25.076 17.8302 25.2804 18.0562 25.4434C17.8305 25.6061 17.6372 25.8101 17.4868 26.0449C17.3363 25.8099 17.1425 25.6061 16.9165 25.4434C17.1428 25.2803 17.3363 25.0763 17.4868 24.8408ZM22.5132 24.8418C22.5542 24.9059 22.5978 24.968 22.645 25.0273H22.3813C22.4286 24.968 22.4722 24.9059 22.5132 24.8418ZM12.438 20.2734C12.5916 20.5248 12.7925 20.7433 13.0308 20.915C12.7929 21.0865 12.5915 21.3038 12.438 21.5547V20.2734ZM27.562 21.5547C27.4084 21.3036 27.2064 21.0866 26.9683 20.915C27.2068 20.7432 27.4083 20.525 27.562 20.2734V21.5547ZM17.4868 20.3115C17.6374 20.5471 17.8307 20.7519 18.0571 20.915C17.8312 21.0779 17.6373 21.2815 17.4868 21.5166C17.3363 21.2815 17.1425 21.0779 16.9165 20.915C17.143 20.7519 17.3362 20.5471 17.4868 20.3115ZM22.5132 20.3125C22.6636 20.5476 22.8565 20.7522 23.0825 20.915C22.857 21.0777 22.6635 21.281 22.5132 21.5156C22.3627 21.2806 22.1679 21.0778 21.9419 20.915C22.1684 20.752 22.3625 20.548 22.5132 20.3125ZM12.438 15.0156C12.6252 15.5086 12.9945 15.9106 13.4653 16.1396C13.0364 16.3195 12.6784 16.6325 12.438 17.0254V15.0156ZM27.562 17.0254C27.3396 16.6619 27.0156 16.369 26.6284 16.1846C27.0144 16.0206 27.3387 15.7416 27.562 15.3916V17.0254ZM18.1069 16.3486C17.8591 16.5169 17.6484 16.7348 17.4868 16.9873C17.3253 16.735 17.1153 16.5168 16.8677 16.3486H18.1069ZM23.1323 16.3486C22.8849 16.5166 22.6747 16.7343 22.5132 16.9863C22.3516 16.7341 22.1407 16.5167 21.8931 16.3486H23.1323ZM13.0474 9.5H26.9526C27.2873 9.50002 27.562 9.77473 27.562 10.1094V11.0352C27.1955 10.4611 26.5543 10.0791 25.8237 10.0791H14.3638C13.4839 10.0793 12.7337 10.6331 12.438 11.4102V10.1094C12.438 9.77469 12.7127 9.5 13.0474 9.5Z" fill="#FEFEFE" stroke="#0B3847" stroke-width="3"/>
</svg>
